# xmcd
#
# Track frame offsets:
#	150
#	10385
#	30573
#	47241
#	61905
#	78089
#	95845
#	119530
#	131082
#	146152
#
# Disc length: 2145 seconds
#
# Revision: 1
# Processed by: cddbd v1.5.1PL2 Copyright (c) Steve Scherf et al.
# Submitted via: audiograbber 1.81.03
#
DISCID=8b085f0a
DTITLE=James Hill - A Flying Leap
DYEAR=2005
DGENRE=Blues
TTITLE0=Uke Talk
TTITLE1=Song for Cheri
TTITLE2=Down Rideau Canal
TTITLE3=Little Wing
TTITLE4=One Small Suite for Ukulele I Allegro con brio
TTITLE5=One Small Suite for Ukulele II Largo cantabile
TTITLE6=One Small Suite for Ukulele III Vivace giocoso
TTITLE7=Fleas My Dog Has
TTITLE8=Skipping Stone
TTITLE9=Never On Sunday
EXTD=
EXTT0=
EXTT1=
EXTT2=
EXTT3=
EXTT4=
EXTT5=
EXTT6=
EXTT7=
EXTT8=
EXTT9=
PLAYORDER=
